<?xml version="1.0" encoding="utf-8" standalone="yes"?>
<!DOCTYPE svg PUBLIC "-//W3C//DTD SVG 1.1//EN" "http://www.w3.org/Graphics/SVG/1.1/DTD/svg11.dtd">
<svg style="fill:none;stroke:none;fill-rule:evenodd;clip-rule:evenodd;stroke-linecap:round;stroke-linejoin:round;stroke-miterlimit:1.5;" version="1.1" xmlns="http://www.w3.org/2000/svg" xmlns:xlink="http://www.w3.org/1999/xlink" width="1008" height="810" viewBox="0 0 1008 810"><style class="text-font-style fontImports" data-font-family="Roboto">@import url(https://fonts.googleapis.com/css2?family=Roboto:wght@400;700&amp;amp;display=block);</style><g id="items" style="isolation: isolate"><g id="blend" style="mix-blend-mode: normal"><g id="g-root-sy_5_cu_Vector_251fr186v1fv-fill" data-item-order="-587510" transform="translate(302, 632)"><g id="sy_5_cu_Vector_251fr186v1fv-fill-merged" stroke="none" fill="#b7b7b7" fill-opacity="1"><g><path d="M10 106L82 130 H610L682 106L622.563 10 H69.438L10 106"></path></g></g></g><g id="g-root-sy_5_cu_Vector_251fr186v1fv-stroke" data-item-order="-587510" transform="translate(302, 632)"><g id="sy_5_cu_Vector_251fr186v1fv-stroke" fill="none" stroke-linecap="round" stroke-linejoin="round" stroke-miterlimit="4" stroke="#2c2c2c" stroke-width="2" stroke-opacity="1"><g><path d="M 69.4375 10L 10 106L 682 106L 622.5625 10L 69.4375 10ZM 82 130L 10 106L 682 106L 610 130L 82 130Z"></path></g></g></g><g id="g-root-sy_5_Subtract_1lsf24n186uznw-fill" data-item-order="-587505" transform="translate(21, 668.000244140625)"></g><g id="g-root-sy_5_Subtract_1lsf24n186uznw-stroke" data-item-order="-587505" transform="translate(21, 668.000244140625)"><g id="sy_5_Subtract_1lsf24n186uznw-stroke" fill="none" stroke-linecap="round" stroke-linejoin="round" stroke-miterlimit="4" stroke="#b7b7b7" stroke-width="2" stroke-opacity="1"><g><path d="M 10 10.00077L 328 9.99997"></path></g></g></g><g id="g-root-sy_5_Subtract-start_1hclk07186v0g5-fill" data-item-order="-587503" transform="translate(15, 665)"></g><g id="g-root-sy_5_Subtract-start_1hclk07186v0g5-stroke" data-item-order="-587503" transform="translate(15, 665)"><g id="sy_5_Subtract-start_1hclk07186v0g5-stroke" fill="none" stroke-linecap="round" stroke-linejoin="round" stroke-miterlimit="4" stroke="#f4f4f4" stroke-width="2" stroke-opacity="1"><g><path d="M 13 16C 11.3443 16 10 14.6557 10 13C 10 11.3443 11.3443 10 13 10C 14.6557 10 16 11.3443 16 13C 16 14.6557 14.6557 16 13 16Z"></path></g></g></g><g id="g-root-sy_4_cu_Vector_141ripz186uyva-fill" data-item-order="-587500" transform="translate(374, 512)"><g id="sy_4_cu_Vector_141ripz186uyva-fill-merged" stroke="none" fill="#cc68f9" fill-opacity="1"><g><path d="M10 106L80 130 H466L538 106L480.563 10 H69.438L10 106"></path></g></g></g><g id="g-root-sy_4_cu_Vector_141ripz186uyva-stroke" data-item-order="-587500" transform="translate(374, 512)"><g id="sy_4_cu_Vector_141ripz186uyva-stroke" fill="none" stroke-linecap="round" stroke-linejoin="round" stroke-miterlimit="4" stroke="#2c2c2c" stroke-width="2" stroke-opacity="1"><g><path d="M 69.4375 10L 10 106L 538 106L 480.5625 10L 69.4375 10ZM 80 130L 10 106L 538 106L 466 130L 80 130Z"></path></g></g></g><g id="g-root-sy_4_Subtract_huo03r186v18v-fill" data-item-order="-587495" transform="translate(21, 548.000244140625)"></g><g id="g-root-sy_4_Subtract_huo03r186v18v-stroke" data-item-order="-587495" transform="translate(21, 548.000244140625)"><g id="sy_4_Subtract_huo03r186v18v-stroke" fill="none" stroke-linecap="round" stroke-linejoin="round" stroke-miterlimit="4" stroke="#cc68f9" stroke-width="2" stroke-opacity="1"><g><path d="M 10 10.0013L 400 10"></path></g></g></g><g id="g-root-sy_4_Subtract-start_dfgz2f186uyvc-fill" data-item-order="-587493" transform="translate(15, 545)"></g><g id="g-root-sy_4_Subtract-start_dfgz2f186uyvc-stroke" data-item-order="-587493" transform="translate(15, 545)"><g id="sy_4_Subtract-start_dfgz2f186uyvc-stroke" fill="none" stroke-linecap="round" stroke-linejoin="round" stroke-miterlimit="4" stroke="#f4f4f4" stroke-width="2" stroke-opacity="1"><g><path d="M 13 16C 11.3443 16 10 14.6557 10 13C 10 11.3443 11.3443 10 13 10C 14.6557 10 16 11.3443 16 13C 16 14.6557 14.6557 16 13 16Z"></path></g></g></g><g id="g-root-sy_3_cu_Vector_40gp3186v0g9-fill" data-item-order="-587490" transform="translate(446, 392)"><g id="sy_3_cu_Vector_40gp3186v0g9-fill-merged" stroke="none" fill="#43dd93" fill-opacity="1"><g><path d="M10 106L70 130 H334L394 106L334 10 H70L10 106"></path></g></g></g><g id="g-root-sy_3_cu_Vector_40gp3186v0g9-stroke" data-item-order="-587490" transform="translate(446, 392)"><g id="sy_3_cu_Vector_40gp3186v0g9-stroke" fill="none" stroke-linecap="round" stroke-linejoin="round" stroke-miterlimit="4" stroke="#2c2c2c" stroke-width="2" stroke-opacity="1"><g><path d="M 70 10L 10 106L 394 106L 334 10L 70 10ZM 70 130L 10 106L 394 106L 334 130L 70 130Z"></path></g></g></g><g id="g-root-sy_3_Subtract_1upb0jr186v11e-fill" data-item-order="-587485" transform="translate(20, 428)"></g><g id="g-root-sy_3_Subtract_1upb0jr186v11e-stroke" data-item-order="-587485" transform="translate(20, 428)"><g id="sy_3_Subtract_1upb0jr186v11e-stroke" fill="none" stroke-linecap="round" stroke-linejoin="round" stroke-miterlimit="4" stroke="#43dd93" stroke-width="2" stroke-opacity="1"><g><path d="M 10 10.0008L 473 10"></path></g></g></g><g id="g-root-sy_3_Subtract-start_1luahdz186uyob-fill" data-item-order="-587483" transform="translate(14, 425)"></g><g id="g-root-sy_3_Subtract-start_1luahdz186uyob-stroke" data-item-order="-587483" transform="translate(14, 425)"><g id="sy_3_Subtract-start_1luahdz186uyob-stroke" fill="none" stroke-linecap="round" stroke-linejoin="round" stroke-miterlimit="4" stroke="#f4f4f4" stroke-width="2" stroke-opacity="1"><g><path d="M 13 16C 11.3443 16 10 14.6557 10 13C 10 11.3443 11.3443 10 13 10C 14.6557 10 16 11.3443 16 13C 16 14.6557 14.6557 16 13 16Z"></path></g></g></g><g id="g-root-sy_2_cu_Vector_1hegz9j186uzgk-fill" data-item-order="-587480" transform="translate(518, 272)"><g id="sy_2_cu_Vector_1hegz9j186uzgk-fill-merged" stroke="none" fill="#a6da37" fill-opacity="1"><g><path d="M10 106L58 130 H202L250 106L202 10 H58L10 106"></path></g></g></g><g id="g-root-sy_2_cu_Vector_1hegz9j186uzgk-stroke" data-item-order="-587480" transform="translate(518, 272)"><g id="sy_2_cu_Vector_1hegz9j186uzgk-stroke" fill="none" stroke-linecap="round" stroke-linejoin="round" stroke-miterlimit="4" stroke="#2c2c2c" stroke-width="2" stroke-opacity="1"><g><path d="M 58 10L 10 106L 250 106L 202 10L 58 10ZM 58 130L 10 106L 250 106L 202 130L 58 130Z"></path></g></g></g><g id="g-root-sy_2_Subtract_1430gw7186v11h-fill" data-item-order="-587475" transform="translate(20, 308)"></g><g id="g-root-sy_2_Subtract_1430gw7186v11h-stroke" data-item-order="-587475" transform="translate(20, 308)"><g id="sy_2_Subtract_1430gw7186v11h-stroke" fill="none" stroke-linecap="round" stroke-linejoin="round" stroke-miterlimit="4" stroke="#a6da37" stroke-width="2" stroke-opacity="1"><g><path d="M 10 10L 537.6952 10"></path></g></g></g><g id="g-root-sy_2_Subtract-start_1430gw7186v11i-fill" data-item-order="-587473" transform="translate(14, 305)"></g><g id="g-root-sy_2_Subtract-start_1430gw7186v11i-stroke" data-item-order="-587473" transform="translate(14, 305)"><g id="sy_2_Subtract-start_1430gw7186v11i-stroke" fill="none" stroke-linecap="round" stroke-linejoin="round" stroke-miterlimit="4" stroke="#f4f4f4" stroke-width="2" stroke-opacity="1"><g><path d="M 13 16C 11.3443 16 10 14.6557 10 13C 10 11.3443 11.3443 10 13 10C 14.6557 10 16 11.3443 16 13C 16 14.6557 14.6557 16 13 16Z"></path></g></g></g><g id="g-root-sy_1_cu_Vector_qs6flz186uzgn-fill" data-item-order="-587470" transform="translate(578, 140)"><g id="sy_1_cu_Vector_qs6flz186uzgn-fill-merged" stroke="none" fill="#8ab7ff" fill-opacity="1"><g><path d="M10 118L46 142 H94L130 118L70 10L10 118"></path></g></g></g><g id="g-root-sy_1_cu_Vector_qs6flz186uzgn-stroke" data-item-order="-587470" transform="translate(578, 140)"><g id="sy_1_cu_Vector_qs6flz186uzgn-stroke" fill="none" stroke-linecap="round" stroke-linejoin="round" stroke-miterlimit="4" stroke="#2c2c2c" stroke-width="2" stroke-opacity="1"><g><path d="M 130 118L 70 10L 10 118L 130 118ZM 10 118L 130 118L 94 142L 46 142L 10 118Z"></path></g></g></g><g id="g-root-sy_1_Subtract_mccxhj186v08w-fill" data-item-order="-587465" transform="translate(20, 188)"></g><g id="g-root-sy_1_Subtract_mccxhj186v08w-stroke" data-item-order="-587465" transform="translate(20, 188)"><g id="sy_1_Subtract_mccxhj186v08w-stroke" fill="none" stroke-linecap="round" stroke-linejoin="round" stroke-miterlimit="4" stroke="#8ab7ff" stroke-width="2" stroke-opacity="1"><g><path d="M 10 10L 601.5 10.0001"></path></g></g></g><g id="g-root-sy_1_Subtract-start_dgpx8n186v11l-fill" data-item-order="-587463" transform="translate(14, 185)"></g><g id="g-root-sy_1_Subtract-start_dgpx8n186v11l-stroke" data-item-order="-587463" transform="translate(14, 185)"><g id="sy_1_Subtract-start_dgpx8n186v11l-stroke" fill="none" stroke-linecap="round" stroke-linejoin="round" stroke-miterlimit="4" stroke="#f4f4f4" stroke-width="2" stroke-opacity="1"><g><path d="M 13 16C 11.3443 16 10 14.6557 10 13C 10 11.3443 11.3443 10 13 10C 14.6557 10 16 11.3443 16 13C 16 14.6557 14.6557 16 13 16Z"></path></g></g></g><g id="g-root-tx_iathorie_1q6d85j186pclr-fill" data-item-order="0" transform="translate(14.000007629394531, 392)"><g id="tx_iathorie_1q6d85j186pclr-fill-merged" stroke="none" fill="#43dd93" fill-opacity="1"><g><text style="font: bold 20px &quot;Roboto&quot;, sans-serif; white-space: pre;" transform="translate(9.999992370605469, 22)" font-weight="bold" font-size="20px" font-family="'Roboto', sans-serif"><tspan x="2" y="12" dominant-baseline="ideographic">IA Théorie de l'Esprit</tspan></text></g></g></g><g id="g-root-tx_iathorie_1q6d85j186pclr-stroke" data-item-order="0" transform="translate(14.000007629394531, 392)"></g><g id="g-root-tx_conscien_18f37nr186peyw-fill" data-item-order="0" transform="translate(14.000007629394531, 320)"><g id="tx_conscien_18f37nr186peyw-fill-merged" stroke="none" fill="#2c2c2c" fill-opacity="1"><g><text style="font: 15px &quot;Roboto&quot;, sans-serif; white-space: pre;" transform="translate(9.999992370605469, 28)" font-size="15px" font-family="'Roboto', sans-serif"><tspan x="2" y="0" dominant-baseline="ideographic">Conscience de soi, sentiments et </tspan><tspan x="2" y="18" dominant-baseline="ideographic">désirs (théorique)</tspan></text></g></g></g><g id="g-root-tx_conscien_18f37nr186peyw-stroke" data-item-order="0" transform="translate(14.000007629394531, 320)"></g><g id="g-root-ic_1_qn6mx318791ji-fill" data-item-order="0" transform="translate(623, 421)"></g><g id="g-root-ic_1_qn6mx318791ji-stroke" data-item-order="0" transform="translate(623, 421)"><g id="ic_1_qn6mx318791ji-stroke" fill="none" stroke-linecap="round" stroke-linejoin="round" stroke-miterlimit="4" stroke="#2c2c2c" stroke-width="2" stroke-opacity="1"><g><path d="M 15.649394 44.875L 15.649394 35.477501C 13.979754 33.55735 12.815345 31.05685 12.308207 28.302551C 11.801082 25.54825 11.974792 22.668011 12.806681 20.03812C 13.638557 17.40823 15.089935 15.15085 16.971287 13.560775C 18.852636 11.9707 21.076513 11.121826 23.352568 11.125009C 31.978859 11.125009 33.8409 19.942015 36.916111 29.844999C 36.968792 30.015551 36.987278 30.199299 36.970001 30.38065C 36.952721 30.562 36.90028 30.735399 36.817024 30.886C 36.733772 31.036449 36.622364 31.159599 36.492226 31.244801C 36.362087 31.33 36.217331 31.374699 36.070274 31.375L 33.774441 31.375L 33.774441 35.875C 33.774441 37.06855 33.39249 38.213051 32.712681 39.05695C 32.032871 39.900852 31.110794 40.375 30.149443 40.375L 28.336943 40.375L 28.336943 44.875M 16.267626 24.710501C 16.266729 29.492968 19.389582 33.370514 23.242125 33.370514C 27.094667 33.370514 30.217522 29.492968 30.216625 24.710499C 30.217522 19.928032 27.094667 16.050486 23.242125 16.050486C 19.389582 16.050486 16.266729 19.928032 16.267626 24.710499M 23.241884 29.11105C 22.315939 29.129351 21.385159 28.699902 20.678526 27.822701M 25.69202 28.644249C 25.014267 27.8029 24.130371 27.373451 23.242125 27.3559M 20.25631 23.142399C 20.0623 23.142399 19.905035 22.947161 19.905035 22.706335C 19.905035 22.465496 20.0623 22.270269 20.25631 22.270269M 20.256454 23.142399C 20.450453 23.142399 20.607729 22.947161 20.607729 22.706335C 20.607729 22.465496 20.450453 22.270269 20.256454 22.270269M 26.228401 23.142399C 26.034342 23.142399 25.877016 22.947161 25.877016 22.706335C 25.877016 22.465496 26.034342 22.270269 26.228401 22.270269M 26.228521 23.142399C 26.422459 23.142399 26.579784 22.947161 26.579784 22.706335C 26.579784 22.465496 26.422459 22.270269 26.228521 22.270269M 10 10M 23.242125 16.052275L 23.242125 33.369553"></path></g></g></g><g id="g-root-tx_comprend_hrjptz186pcsu-fill" data-item-order="0" transform="translate(13.999992370605469, 440)"><g id="tx_comprend_hrjptz186pcsu-fill-merged" stroke="none" fill="#2c2c2c" fill-opacity="1"><g><text style="font: 15px &quot;Roboto&quot;, sans-serif; white-space: pre;" transform="translate(10.000007629394531, 28)" font-size="15px" font-family="'Roboto', sans-serif"><tspan x="2" y="0" dominant-baseline="ideographic">Comprend les pensées et les </tspan><tspan x="2" y="18" dominant-baseline="ideographic">émotions des autres (théorique)</tspan></text></g></g></g><g id="g-root-tx_comprend_hrjptz186pcsu-stroke" data-item-order="0" transform="translate(13.999992370605469, 440)"></g><g id="g-root-tx_iammoire_14809l3187ag3p-fill" data-item-order="0" transform="translate(13.999992370605469, 512)"><g id="tx_iammoire_14809l3187ag3p-fill-merged" stroke="none" fill="#cc68f9" fill-opacity="1"><g><text style="font: bold 20px &quot;Roboto&quot;, sans-serif; white-space: pre;" transform="translate(10.000007629394531, 22)" font-weight="bold" font-size="20px" font-family="'Roboto', sans-serif"><tspan x="2" y="12" dominant-baseline="ideographic">IA à Mémoire Limitée</tspan></text></g></g></g><g id="g-root-tx_iammoire_14809l3187ag3p-stroke" data-item-order="0" transform="translate(13.999992370605469, 512)"></g><g id="g-root-ic_robo_me8cqv18790qq-fill" data-item-order="0" transform="translate(623, 301)"></g><g id="g-root-ic_robo_me8cqv18790qq-stroke" data-item-order="0" transform="translate(623, 301)"><g id="ic_robo_me8cqv18790qq-stroke" fill="none" stroke-linecap="round" stroke-linejoin="round" stroke-miterlimit="4" stroke="#2c2c2c" stroke-width="2" stroke-opacity="1"><g><path d="M 25.594509 28.6378C 24.276339 30.274151 23.543968 32.637848 23.543968 35.001549L 23.543968 38.092449C 23.543968 40.0924 22.225796 41.728897 20.614641 41.728897L 19.149971 41.728897C 17.538839 41.728897 16.220646 40.0924 16.220646 38.092449L 16.220646 35.001549C 16.220646 32.637848 15.488311 30.274151 14.170115 28.6378C 12.705459 27.00145 11.826662 24.455921 11.826662 21.728621C 11.826662 16.274021 15.488311 11.72851 19.882307 11.72851C 21.481426 11.72851 22.983541 12.33055 24.247459 13.359355M 19.883793 41.728451L 19.883793 44.273949M 16.221031 34.45705L 23.544329 34.45705M 29.456583 15.5905L 34.756336 15.5905C 34.756336 15.5905 37.173 15.5905 37.173 18.5905L 37.173 22.376501C 37.173 22.376501 37.173 25.376501 34.756336 25.376501L 29.456583 25.376501C 29.456583 25.376501 27.039917 25.376501 27.039917 22.376501L 27.039917 18.5905C 27.039917 18.5905 27.039917 15.5905 29.456583 15.5905M 10 10M 32.107548 11.730085L 32.107548 15.58984M 10 10M 30.446089 19.612766L 30.446089 21.355465M 10 10M 33.769005 19.612766L 33.769005 21.355465"></path></g></g></g><g id="g-root-tx_iaautoco_qofo93186pe69-fill" data-item-order="0" transform="translate(13.999992370605469, 272)"><g id="tx_iaautoco_qofo93186pe69-fill-merged" stroke="none" fill="#a6da37" fill-opacity="1"><g><text style="font: bold 20px &quot;Roboto&quot;, sans-serif; white-space: pre;" transform="translate(10.000007629394531, 22)" font-weight="bold" font-size="20px" font-family="'Roboto', sans-serif"><tspan x="2" y="12" dominant-baseline="ideographic">IA Auto-Consciente</tspan></text></g></g></g><g id="g-root-tx_iaautoco_qofo93186pe69-stroke" data-item-order="0" transform="translate(13.999992370605469, 272)"></g><g id="g-root-tx_dpasseli_ddlmyv186pcle-fill" data-item-order="0" transform="translate(13.999992370605469, 200)"><g id="tx_dpasseli_ddlmyv186pcle-fill-merged" stroke="none" fill="#2c2c2c" fill-opacity="1"><g><text style="font: 15px &quot;Roboto&quot;, sans-serif; white-space: pre;" transform="translate(10.000007629394531, 28)" font-size="15px" font-family="'Roboto', sans-serif"><tspan x="2" y="0" dominant-baseline="ideographic">Dépasse l'intelligence humaine dans </tspan><tspan x="2" y="18" dominant-baseline="ideographic">tous les domaines (théorique)</tspan></text></g></g></g><g id="g-root-tx_dpasseli_ddlmyv186pcle-stroke" data-item-order="0" transform="translate(13.999992370605469, 200)"></g><g id="g-root-ic_shar_940sjr186z7yb-fill" data-item-order="0" transform="translate(623, 541)"></g><g id="g-root-ic_shar_940sjr186z7yb-stroke" data-item-order="0" transform="translate(623, 541)"><g id="ic_shar_940sjr186z7yb-stroke" fill="none" stroke-linecap="round" stroke-linejoin="round" stroke-miterlimit="4" stroke="#2c2c2c" stroke-width="2" stroke-opacity="1"><g><path d="M 26.661709 10.75L 37.160919 10.75C 37.160919 10.75 38.395836 10.75 38.395836 12.283L 38.395836 24.549999C 38.395836 24.549999 38.395836 26.083 37.160919 26.083L 26.661709 26.083C 26.661709 26.083 25.426792 26.083 25.426792 24.549999L 25.426792 12.283C 25.426792 12.283 25.426792 10.75 26.661709 10.75M 25.426792 15.9715L 38.395836 15.9715M 25.426792 21.028L 38.395836 21.028M 31.292042 15.9715L 31.292042 26.083M 34.769627 15.9715L 34.769627 26.083M 16.1625 20.200001L 13.383333 23.5L 13.383333 20.200001C 13.422977 17.708704 15.082431 15.729294 17.089293 15.7795L 21.720833 15.7795M 10.604167 20.200001L 13.383333 23.5075M 18.941668 12.4675L 21.720833 15.7795L 18.941668 19.091499M 11.839084 27.616001L 18.633541 27.616001C 18.633541 27.616001 19.868458 27.616001 19.868458 29.149002L 19.868458 43.717003C 19.868458 43.717003 19.868458 45.25 18.633541 45.25L 11.839084 45.25C 11.839084 45.25 10.604167 45.25 10.604167 43.717003L 10.604167 29.149002C 10.604167 29.149002 10.604167 27.616001 11.839084 27.616001M 10.604167 40.649502L 19.868458 40.649502"></path></g></g></g><g id="g-root-tx_utiliseu_1lynszr187agwc-fill" data-item-order="0" transform="translate(13.999992370605469, 560)"><g id="tx_utiliseu_1lynszr187agwc-fill-merged" stroke="none" fill="#2c2c2c" fill-opacity="1"><g><text style="font: 15px &quot;Roboto&quot;, sans-serif; white-space: pre;" transform="translate(10.000007629394531, 28)" font-size="15px" font-family="'Roboto', sans-serif"><tspan x="2" y="0" dominant-baseline="ideographic">Utilise une mémoire limitée pour des </tspan><tspan x="2" y="18" dominant-baseline="ideographic">décisions éclairées</tspan></text></g></g></g><g id="g-root-tx_utiliseu_1lynszr187agwc-stroke" data-item-order="0" transform="translate(13.999992370605469, 560)"></g><g id="g-root-tx_iaractiv_94n9mv187aepv-fill" data-item-order="0" transform="translate(14, 632)"><g id="tx_iaractiv_94n9mv187aepv-fill-merged" stroke="none" fill="#b7b7b7" fill-opacity="1"><g><text style="font: bold 20px &quot;Roboto&quot;, sans-serif; white-space: pre;" transform="translate(10, 22)" font-weight="bold" font-size="20px" font-family="'Roboto', sans-serif"><tspan x="2" y="12" dominant-baseline="ideographic">IA Réactive</tspan></text></g></g></g><g id="g-root-tx_iaractiv_94n9mv187aepv-stroke" data-item-order="0" transform="translate(14, 632)"></g><g id="g-root-ic_side_251fr187ah3i-fill" data-item-order="0" transform="translate(623, 193)"></g><g id="g-root-ic_side_251fr187ah3i-stroke" data-item-order="0" transform="translate(623, 193)"><g id="ic_side_251fr187ah3i-stroke" fill="none" stroke-linecap="round" stroke-linejoin="round" stroke-miterlimit="4" stroke="#2c2c2c" stroke-width="2" stroke-opacity="1"><g><path d="M 14.379025 18.925014C 15.380044 18.925014 16.191525 17.91766 16.191525 16.675014C 16.191525 15.432384 15.380044 14.425015 14.379025 14.425015C 13.378016 14.425015 12.566525 15.432384 12.566525 16.675014C 12.566525 17.91766 13.378016 18.925014 14.379025 18.925014ZM 10 10M 16.191525 16.675014L 22.685083 16.675014M 12.71875 30.174999C 13.719769 30.174999 14.53125 29.167601 14.53125 27.924999C 14.53125 26.6824 13.719769 25.674999 12.71875 25.674999C 11.717731 25.674999 10.90625 26.6824 10.90625 27.924999C 10.90625 29.167601 11.717731 30.174999 12.71875 30.174999ZM 10 10M 14.53125 27.924999L 22.685083 27.924999M 14.379025 41.425003C 15.380044 41.425003 16.191525 40.417603 16.191525 39.175003C 16.191525 37.9324 15.380044 36.925003 14.379025 36.925003C 13.378016 36.925003 12.566525 37.9324 12.566525 39.175003C 12.566525 40.417603 13.378016 41.425003 14.379025 41.425003ZM 10 10M 16.192709 39.175003L 22.685083 39.175003M 16.795691 33.924999L 19.212358 33.924999L 19.212358 39.166603M 18.532091 22.675014L 22.685083 22.675014M 22.685083 11.425018C 32.472584 11.425018 34.526752 21.325016 38.030918 32.575001C 38.272587 33.474998 37.789249 34.375 37.064251 34.375L 34.526752 34.375L 34.526752 39.474998C 34.526752 42.324997 32.714252 44.574997 30.418419 44.574997L 22.685083 44.574997L 22.685083 11.425018ZM 30.900301 36.175003C 31.504469 37.675003 33.316967 37.675003 34.525303 37.675003M 30.297585 26.72485C 30.164183 26.72485 30.055918 26.590599 30.055918 26.42485C 30.055918 26.259251 30.164183 26.124849 30.297585 26.124849M 30.297585 26.72485C 30.430983 26.72485 30.539249 26.590599 30.539249 26.42485C 30.539249 26.259251 30.430983 26.124849 30.297585 26.124849"></path></g></g></g><g id="g-root-tx_iasurhum_254lj186pe6b-fill" data-item-order="0" transform="translate(14, 152)"><g id="tx_iasurhum_254lj186pe6b-fill-merged" stroke="none" fill="#8ab7ff" fill-opacity="1"><g><text style="font: bold 20px &quot;Roboto&quot;, sans-serif; white-space: pre;" transform="translate(10, 22)" font-weight="bold" font-size="20px" font-family="'Roboto', sans-serif"><tspan x="2" y="12" dominant-baseline="ideographic">IA Surhumaine</tspan></text></g></g></g><g id="g-root-tx_iasurhum_254lj186pe6b-stroke" data-item-order="0" transform="translate(14, 152)"></g><g id="g-root-ic_reco_1lvjfk7186v0uj-fill" data-item-order="0" transform="translate(623, 661)"></g><g id="g-root-ic_reco_1lvjfk7186v0uj-stroke" data-item-order="0" transform="translate(623, 661)"><g id="ic_reco_1lvjfk7186v0uj-stroke" fill="none" stroke-linecap="round" stroke-linejoin="round" stroke-miterlimit="4" stroke="#2c2c2c" stroke-width="2" stroke-opacity="1"><g><path d="M 24.845585 43.643501C 24.844917 44.530987 24.265173 45.25 23.550251 45.25L 11.898292 45.25C 11.183843 45.249172 10.604833 44.530403 10.604167 43.643501L 10.604167 39.625C 10.604167 34.74308 13.792217 30.7855 17.724874 30.7855C 21.657534 30.7855 24.845585 34.74308 24.845585 39.625ZM 15.006125 36.25C 15.006125 36.457108 15.141373 36.625 15.308208 36.625C 15.475044 36.625 15.610292 36.457108 15.610292 36.25C 15.610292 36.042892 15.475044 35.875 15.308208 35.875C 15.141373 35.875 15.006125 36.042892 15.006125 36.25M 19.839458 36.240997C 19.839458 36.448105 19.974707 36.615997 20.141542 36.615997C 20.308378 36.615997 20.443624 36.448105 20.443624 36.240997C 20.443624 36.033894 20.308378 35.865997 20.141542 35.865997C 19.974707 35.865997 19.839458 36.033894 19.839458 36.240997M 17.724874 30.7855L 17.724874 27.570999M 15.783083 25.1605C 15.783084 26.491783 16.652452 27.571001 17.724874 27.571001C 18.797298 27.571001 19.666668 26.491783 19.666668 25.1605C 19.666668 23.829218 18.797298 22.75 17.724874 22.75C 16.652452 22.75 15.783084 23.829218 15.783084 25.1605M 10.604167 41.2225L 24.845585 41.2225M 20.270834 18.25L 20.270834 20.125M 23.291668 16.75L 23.291668 25.75M 26.3125 15.25L 26.3125 27.25M 38.395836 18.25L 38.395836 24.25M 35.375 16.75L 35.375 25.75M 32.354168 15.25L 32.354168 27.25M 29.333334 10.75L 29.333334 31.75"></path></g></g></g><g id="g-root-tx_hirarchi_91iw7b186uyo2-fill" data-item-order="0" transform="translate(210.04165649414062, 38)"><g id="tx_hirarchi_91iw7b186uyo2-fill-merged" stroke="none" fill="#2c2c2c" fill-opacity="1"><g><text style="font: bold 25px &quot;Roboto&quot;, sans-serif; white-space: pre;" transform="translate(280.9583435058594, 25)" font-weight="bold" font-size="25px" font-family="'Roboto', sans-serif"><tspan x="-268.96" y="15" dominant-baseline="ideographic">Hiérarchie des Niveaux d'Intelligence Artificielle</tspan></text></g></g></g><g id="g-root-tx_hirarchi_91iw7b186uyo2-stroke" data-item-order="0" transform="translate(210.04165649414062, 38)"></g><g id="g-root-tx_ragitaux_mfhax3187agaq-fill" data-item-order="0" transform="translate(14.000007629394531, 680)"><g id="tx_ragitaux_mfhax3187agaq-fill-merged" stroke="none" fill="#2c2c2c" fill-opacity="1"><g><text style="font: 15px &quot;Roboto&quot;, sans-serif; white-space: pre;" transform="translate(9.999992370605469, 28)" font-size="15px" font-family="'Roboto', sans-serif"><tspan x="2" y="0" dominant-baseline="ideographic">Réagit aux stimuli présents sans </tspan><tspan x="2" y="18" dominant-baseline="ideographic">mémoire</tspan></text></g></g></g><g id="g-root-tx_ragitaux_mfhax3187agaq-stroke" data-item-order="0" transform="translate(14.000007629394531, 680)"></g></g></g><path id="w18jfx6f16tcg04" d="M65.283 12.757a.35.35 0 0 0 .584.157l5.203-5.141-6.183 3.523.396 1.461zm-2.216-11.7a.35.35 0 0 0-.522.305v3.111l3.276-1.868-2.754-1.548zm3.728 2.105l-4.25 2.421v2.445l6.391-3.644-2.141-1.222zm4.708 3.303a.35.35 0 0 0 0-.609l-1.592-.9-7.365 4.199v1.782a.35.35 0 0 0 .523.305l8.435-4.777z M44.542 2.513c0-.433.355-.783.792-.783s.792.35.792.783-.355.783-.792.783-.792-.35-.792-.783zm59.171 0c0-.433.355-.783.792-.783s.792.35.792.783-.355.783-.792.783-.792-.35-.792-.783zm-85.951 7.636h-1.27v-.487c-.276.201-.864.609-1.881.609-1.202 0-2.274-.794-2.137-2.078.118-1.106 1.153-1.584 1.848-1.727l2.17-.345c0-.539-.29-.956-1.064-1.006s-1.21.305-1.571 1.017l-1.124-.605c1.218-2.631 5.029-1.764 5.029.414v4.207zm-1.27-2.86c.006.396-.062 1.112-.819 1.59-.587.37-1.841.299-1.903-.395-.049-.555.461-.791.906-.898l1.816-.297zm72.662 2.86h-1.27v-.487c-.276.201-.864.609-1.881.609-1.202 0-2.274-.794-2.137-2.078.118-1.106 1.153-1.584 1.848-1.727l2.17-.345c0-.539-.29-.956-1.064-1.006s-1.21.305-1.571 1.017l-1.124-.605c1.218-2.631 5.029-1.764 5.029.414v4.207zm-1.27-2.86c.006.396-.062 1.112-.82 1.59-.587.37-1.841.299-1.903-.395-.049-.555.461-.791.906-.898l1.816-.297zM99.096 10.149H97.85v-8.45h1.246v4.895l2.68-2.559h1.738l-2.633 2.535 2.715 3.578h-1.556l-2.077-2.707-.867.844v1.863zm6.053-6.114h-1.255v6.113h1.255V4.035zm-59.2 0h-1.255v6.113h1.255V4.035zm5.584 6.113V1.697h1.255v2.695c.361-.346 1-.485 1.47-.485 1.452 0 2.477 1.082 2.457 2.448v3.792h-1.27v-3.68c0-.408-.214-1.339-1.315-1.339-.968 0-1.342.756-1.342 1.339v3.681h-1.255zm-4.76-4.894V4.039h.621a.45.45 0 0 0 .45-.45v-.855h1.251v1.305h1.309v1.215h-1.309v3.109c0 .293.105.664.648.664.365 0 .531-.035.736-.07v1.137s-.361.113-.857.113c-1.398 0-1.777-1.051-1.777-1.788V5.254h-1.071zM36.528 4.039h-1.394l2.191 6.106h1.125l1.234-3.918 1.238 3.918h1.129l2.188-6.106h-1.383l-1.359 3.93-1.256-3.93h-1.124l-1.242 3.957-1.348-3.957zM26.212 7.141c-.02 1.566 1.187 3.129 3.223 3.129 1.566 0 2.383-.918 2.734-1.719L31.172 8c-.315.399-.801 1.094-1.738 1.094-1.145 0-1.825-.781-1.891-1.52h4.625c.074-.284.148-.995-.03-1.559-.336-1.064-1.221-2.102-2.839-2.102s-3.088 1.152-3.088 3.227zm1.363-.75h3.348c-.055-.43-.566-1.301-1.623-1.301a1.79 1.79 0 0 0-1.725 1.301zm-8.758.75c.038 1.758 1.277 3.133 3.145 3.133 1.074 0 1.723-.477 1.961-.672v.547h1.242V1.703h-1.258v2.888c-.414-.36-1.062-.68-1.93-.68-1.91 0-3.198 1.473-3.16 3.23zm1.309-.08c0 1.119.723 1.978 1.836 1.978a1.88 1.88 0 0 0 1.94-1.904c0-1.371-1.011-1.99-1.972-1.99s-1.805.798-1.805 1.916zm76.683-.028C96.771 5.275 95.532 3.9 93.664 3.9c-1.074 0-1.723.477-1.961.672v-.547h-1.242v8.22h1.258V9.583c.414.36 1.063.68 1.93.68 1.91 0 3.198-1.473 3.16-3.23zm-1.309.08c0-1.119-.723-1.978-1.836-1.978a1.88 1.88 0 0 0-1.94 1.904c0 1.371 1.011 1.99 1.972 1.99S95.5 8.231 95.5 7.113zM106.441 10.173V4.036h1.254v.382c.361-.346 1-.485 1.47-.485 1.452 0 2.477 1.082 2.457 2.448v3.792h-1.27V6.492c0-.408-.214-1.339-1.315-1.339-.969 0-1.342.756-1.342 1.339v3.681h-1.254zm-30.383-.021V1.824h1.084l4.215 5.777V1.824h1.32v8.328h-1.094l-4.207-5.796v5.796h-1.319zM5.24 10.149H4V2.377h1.014l2.664 3.597 2.654-3.592h1.03v7.766h-1.256V4.762L7.678 8.068 5.24 4.742v5.407z" transform="translate(20, 776)" fill="#ababab88" stroke="none"></path></svg>